<svg width="32" height="32" viewBox="0 0 32 32" fill="none" xmlns="http://www.w3.org/2000/svg">
<g clip-path="url(#clip0_129_478)">
<mask id="mask0_129_478" style="mask-type:luminance" maskUnits="userSpaceOnUse" x="-2" y="-2" width="36" height="36">
<path d="M10.8978 -1.85718H21.1021C28.1464 -1.85718 33.8571 3.85354 33.8571 10.8978V21.1021C33.8571 28.1464 28.1464 33.8571 21.1021 33.8571H10.8978C3.85354 33.8571 -1.85718 28.1464 -1.85718 21.1021V10.8978C-1.85718 3.85354 3.85354 -1.85718 10.8978 -1.85718Z" fill="white"/>
</mask>
<g mask="url(#mask0_129_478)">
<path d="M2.23571 16C2.23571 8.4 8.4 2.23571 16 2.23571C23.6 2.23571 29.7643 8.4 29.7643 16C29.7643 23.6 23.6 29.7643 16 29.7643C15.3857 29.7643 14.8857 30.2643 14.8857 30.8786C14.8857 31.5 15.3857 32 16 32C24.8357 32 32 24.8357 32 16C32 7.16429 24.8357 0 16 0C7.16429 0 0 7.16429 0 16C0 16.6143 0.5 17.1143 1.12143 17.1143C1.73571 17.1143 2.23571 16.6143 2.23571 16Z" fill="#494848"/>
<path d="M5.5857 16.3713C4.96427 16.3713 4.46427 16.8713 4.46427 17.4856C4.46427 18.1071 4.96427 18.6071 5.5857 18.6071H11.8143L1.82141 28.6071C1.3857 29.0428 1.3857 29.7499 1.82141 30.1856C2.25713 30.6213 2.95713 30.6213 3.39999 30.1856L13.3928 20.1856V26.4142C13.3928 27.0356 13.8928 27.5356 14.5143 27.5356C15.1286 27.5356 15.6286 27.0356 15.6286 26.4142V17.4856C15.6286 16.8713 15.1286 16.3713 14.5143 16.3713H5.5857Z" fill="#494848"/>
</g>
</g>
<defs>
<clipPath id="clip0_129_478">
<rect width="32" height="32" fill="white"/>
</clipPath>
</defs>
</svg>
